# xmcd CD database file
#
# Track frame offsets:
#	150
#	18507
#	33625
#	48471
#	82736
#	107141
#	121343
#	147133
#	161945
#	188014
#	207943
#
# Disc length: 3014 seconds
#
# Revision: 3
# Processed by: cddbd v1.5PL3 Copyright (c) Steve Scherf et al.
# Submitted via: CDex 1.51
#
DISCID=920bc40b
DTITLE=Banda Blue Jeans - Come Back Home
DYEAR=2003
DGENRE=Blues
TTITLE0=Can´t You See What You´re Doing To Me
TTITLE1=Sing A Simple Song
TTITLE2=Come Back Home
TTITLE3=Five Long Years
TTITLE4=Into The Same Old Blues
TTITLE5=Rock Me
TTITLE6=Thru' These Hard Times
TTITLE7=When the Music Stiops
TTITLE8=See The Future
TTITLE9=Never Make a Move too soon
TTITLE10=Georgia Women
EXTD=YEAR: 2003
EXTT0=
EXTT1=
EXTT2=
EXTT3=
EXTT4=
EXTT5=
EXTT6=
EXTT7=
EXTT8=
EXTT9=
EXTT10=
PLAYORDER=
